<svg xmlns="http://www.w3.org/2000/svg" height="800" width="1200" viewBox="-322.65405 -235.54975 2796.3351 1413.2985"><path d="M2151.027 0v467.442c0 262.275-212.478 474.757-474.702 474.757H474.567C212.513 942.199 0 729.647 0 467.442V0z" fill="#6D216F"/><path d="M1834.82 713.725c10.191 5.357 25.959 10.056 27.884 2.26 3.826-14.565-23.03-62.433-42.619-101.49-16.556-33.341-31.874-61.589-58.9-110.094-7.507-13.723-26.028-46.565-35.047-64.124-8.161-15.663-12.326-26.971-14.461-31.62-4.574-9.842-3.921-16.401.554-25.869 4.579-9.313 16.66-24.407 36.523-42.674 3.547-3.337 18.801-16.386 34.568-28.797 31.052-24.322 74.773-56.217 88.161-71.813 9.952-11.775 13.358-22.876 6.026-27.385-9.434-5.647-26.023-6.265-74.395.257-56.147 7.54-114.709 20.863-159.293 22.447-11.188.429-26.986-.274-39.552-9.019-9.433-6.524-18.042-22.103-30.847-45.203-11.742-21.225-17.868-28.66-27.166-28.196-7.367.481-14.975 2.823-23.065 11.67-9.089 9.934-19.449 29.505-35.8 59.008-30.883 55.529-53.982 59.367-73.985 69.164-5.163 2.616-50.81 16.885-84.311 28.091-16.73 5.507-29.949 10.897-39.966 16.045-8.779 4.574-9.916 12.44-4.854 18.296 0 0 1.377 4.405 29.64 19.175 6.062 3.113 13.942 7.093 21.794 11.463 15.044 8.45 29.465 19.778 29.365 37.646-.209 16.316-4.444 31.845-23.38 76.893-8.12 18.965-17.209 38.778-26.472 59.883-14.94 33.601-29.57 69.456-40.555 96.602-11.567 28.383-16.625 41.377-16.042 47.972.484 3.217 4.784 5.282 9.293 3.596 16.631-6.489 49.817-33.102 68.613-47.128 13.807-10.156 65.894-51.468 104.243-78.439 27.335-19.11 49.403-31.83 71.815-37.007 38.554-8.884 75.841 7.073 147.755 55.234 64.621 43.39 153.271 101.848 174.476 113.156M918.288 392.754l10.739-74.983h-63.719l-16.077 111.956h92.366c32.843 0 40.415 18.486 35.147 53.204-3.892 25.135-6.505 46.425-27.23 63.654-8.64 6.924-18.486 11.827-27.75 14.635l-6.679 47.109c24.412-2.888 51.363-10.186 72.742-26.627 36.045-27.659 49.578-62.313 54.432-103.071 7.054-56.013-17.902-85.877-78.564-85.877zm-585.28 176.502l20.382-139.48h40.963c31.745 0 40.419 16.7 35.91 47.647l-13.394 91.833zm82.759-176.502l-120.869.135-31.466 216.627h211.48l19.005-131.195c7.986-55.962-17.559-85.567-78.15-85.567m215.475 85.238l-29.506 206.337h63.689l29.745-206.337zm108.339 68.593c-8.5 6.958-18.486 11.827-27.54 14.635l-6.819 47.024c24.272-2.803 51.434-10.101 72.813-26.577 35.939-27.625 49.368-62.208 54.431-103.036 6.919-56.013-18.112-85.877-78.698-85.877H639.747l-5.303 36.973h97.29c32.808 0 40.31 18.486 34.978 53.204-3.757 25.135-6.301 46.424-27.131 63.654m404.683-116.858h48.405c32.05 0 39.417 18.83 34.22 53.204-3.821 25.135-6.336 46.425-27.266 63.654-8.4 6.924-18.387 11.827-27.545 14.635-6.645 2.01-13.045 2.854-18.107 2.509-20.517-1.546-26.781-15.164-21.654-50.486zm10.325 178.602c28.712 0 62.243-10.186 83.453-26.627 36.045-27.659 49.433-62.313 54.426-103.071 7.023-56.013-18.002-85.877-78.629-85.877l-127.893.07-17.833 126.276c-8.16 57.608 23.306 89.229 86.476 89.229M543.285 392.754l-31.261 216.593h63.549l31.536-216.593z" fill="#FFF"/></svg>