<svg xmlns="http://www.w3.org/2000/svg" xmlns:xlink="http://www.w3.org/1999/xlink" height="800" width="1200" viewBox="-22.3887 -41.31675 194.0354 247.9005"><defs><linearGradient id="a"><stop offset="0" stop-color="#fe0001"/><stop offset="1" stop-color="#ff48d4"/></linearGradient><linearGradient gradientUnits="userSpaceOnUse" y2="62.732" x2="-241.305" y1="62.732" x1="-283.355" id="b" xlink:href="#a"/></defs><g transform="translate(390.563 10.211)"><path d="M-379.3-10.211c-1.018 0-1.837.82-1.837 1.837v69.268c0 1.018.82 1.838 1.837 1.838h17.418v-27.67h26.515v27.67h17.417c1.019 0 1.839-.82 1.839-1.838V-8.374c0-1.018-.82-1.837-1.838-1.837h-17.418v26.989h-26.515v-26.99h-1.837zm30.877 80.987a42.14 42.14 0 00-42.14 42.14 42.14 42.14 0 0042.14 42.14 42.14 42.14 0 0042.14-42.14 42.14 42.14 0 00-42.14-42.14zm48.163 5.25a2.367 2.367 0 00-2.372 2.373v16.007h21.001v54.89h19.32v-54.89h21.006V78.399a2.367 2.367 0 00-2.372-2.372zm-48.317 13.685a23.164 23.164 0 0123.164 23.164 23.164 23.164 0 01-23.164 23.164 23.164 23.164 0 01-23.164-23.164 23.164 23.164 0 0123.164-23.164z"/><rect ry="0" rx="0" y="-10.211" x="-302.632" height="72.943" width="61.327" fill="url(#b)"/></g></svg>